<svg xmlns="http://www.w3.org/2000/svg" data-name="28" viewBox="0 0 64 64" id="twitch"><path fill="#863ef7" fill-rule="evenodd" d="m60,13c0-4.42-3.58-8-8-8H12c-4.42,0-8,3.58-8,8v40c0,4.42,3.58,8,8,8h40c4.42,0,8-3.58,8-8V13h0Z"></path><path fill="#110623" fill-rule="evenodd" d="m16,23.42c0-.27.11-.52.3-.71,1.14-1.14,5.27-5.27,6.41-6.41.19-.19.45-.3.71-.3h23.57c.56,0,1.01.45,1.01,1.01v17.57c0,.27-.11.52-.3.71-1.65,1.65-9.75,9.75-11.41,11.41-.19.19-.45.3-.71.3h-4.21c-.24,0-.47.09-.66.24-1.01.87-4.46,4.29-5.98,5.59-.13.11-.32.14-.47.07-.16-.07-.26-.23-.26-.4v-5.06c0-.12-.05-.23-.13-.31-.08-.08-.19-.13-.31-.13h-6.55c-.56,0-1.01-.45-1.01-1.01v-22.57h0Z"></path><path fill="#fff" fill-rule="evenodd" d="m24.55,19c-.15,0-.29.06-.39.16-.1.1-.16.24-.16.39v18.9c0,.14.06.28.16.39.1.1.24.16.39.16h5.07c.21,0,.38.17.38.38v3.89c0,.12.07.23.19.28.11.05.24.02.33-.07,1.11-1.11,3.66-3.66,4.32-4.32.1-.1.24-.16.39-.16h4.54c.15,0,.29-.06.39-.16.75-.75,3.93-3.93,4.68-4.68.1-.1.16-.24.16-.39v-14.22c0-.14-.06-.28-.16-.39-.1-.1-.24-.16-.39-.16h-19.9Zm16.95,5.54c0-.14-.06-.28-.16-.38-.1-.1-.24-.16-.38-.16h-1.91c-.14,0-.28.06-.38.16-.1.1-.16.24-.16.38v6.91c0,.14.06.28.16.38.1.1.24.16.38.16h1.91c.14,0,.28-.06.38-.16.1-.1.16-.24.16-.38v-6.91h0Zm-7.5,0c0-.14-.06-.28-.16-.38-.1-.1-.24-.16-.38-.16h-1.91c-.14,0-.28.06-.38.16-.1.1-.16.24-.16.38v6.91c0,.14.06.28.16.38.1.1.24.16.38.16h1.91c.14,0,.28-.06.38-.16.1-.1.16-.24.16-.38v-6.91h0Z"></path></svg>